<svg width="41" height="32" viewBox="0 0 41 32" fill="none" xmlns="http://www.w3.org/2000/svg">
<path d="M39.8702 22.0242L36.5046 16.8791C36.5046 16.8791 36.4922 16.8576 36.4846 16.848L36.2192 16.4438C35.7184 15.676 34.852 15.2168 33.9054 15.2143L28.4842 15.1976L28.106 15.7764L21.6281 25.6791L21.27 26.2268L23.9843 30.3697C24.4852 31.1398 25.3515 31.5991 26.3056 31.5991H33.903C34.8395 31.5991 35.7259 31.1279 36.2217 30.3721L36.4896 29.963C36.4896 29.963 36.4997 29.9511 36.5022 29.9464L39.8727 24.7941C40.426 23.9521 40.426 22.8637 39.8727 22.0242H39.8702ZM38.8434 24.1793L35.4729 29.3316C35.4579 29.3555 35.4404 29.3746 35.4254 29.3938C35.3077 29.5205 35.155 29.5373 35.0874 29.5373C35.0097 29.5373 34.8194 29.5158 34.6967 29.3292L31.3263 24.1769C31.2887 24.1196 31.2561 24.0598 31.2261 23.9951C31.1961 23.9329 31.1736 23.8707 31.1535 23.8062C31.0784 23.5479 31.0784 23.2704 31.1535 23.0121C31.1911 22.8853 31.2486 22.7585 31.3238 22.6437L34.6892 17.4962C34.6892 17.4962 34.6943 17.489 34.6967 17.4843C34.7768 17.3695 34.877 17.3169 34.9647 17.3001C34.9998 17.2905 35.0298 17.2882 35.0549 17.2833C35.0673 17.2833 35.0799 17.2833 35.0924 17.2833C35.17 17.2833 35.3628 17.3073 35.483 17.4939L38.8485 22.639C39.1565 23.1077 39.1565 23.7105 38.8485 24.1793H38.8434Z" fill="#1C1D1F"/>
<path d="M39.8702 22.0242L36.5046 16.8791C36.5046 16.8791 36.4922 16.8576 36.4846 16.848L36.2192 16.4438C35.7184 15.676 34.852 15.2168 33.9054 15.2143L28.4842 15.1976L28.106 15.7764L21.6281 25.6791L21.27 26.2268L23.9843 30.3697C24.4852 31.1398 25.3515 31.5991 26.3056 31.5991H33.903C34.8395 31.5991 35.7259 31.1279 36.2217 30.3721L36.4896 29.963C36.4896 29.963 36.4997 29.9511 36.5022 29.9464L39.8727 24.7941C40.426 23.9521 40.426 22.8637 39.8727 22.0242H39.8702ZM38.8434 24.1793L35.4729 29.3316C35.4579 29.3555 35.4404 29.3746 35.4254 29.3938C35.3077 29.5205 35.155 29.5373 35.0874 29.5373C35.0097 29.5373 34.8194 29.5158 34.6967 29.3292L31.3263 24.1769C31.2887 24.1196 31.2561 24.0598 31.2261 23.9951C31.1961 23.9329 31.1736 23.8707 31.1535 23.8062C31.0784 23.5479 31.0784 23.2704 31.1535 23.0121C31.1911 22.8853 31.2486 22.7585 31.3238 22.6437L34.6892 17.4962C34.6892 17.4962 34.6943 17.489 34.6967 17.4843C34.7768 17.3695 34.877 17.3169 34.9647 17.3001C34.9998 17.2905 35.0298 17.2882 35.0549 17.2833C35.0673 17.2833 35.0799 17.2833 35.0924 17.2833C35.17 17.2833 35.3628 17.3073 35.483 17.4939L38.8485 22.639C39.1565 23.1077 39.1565 23.7105 38.8485 24.1793H38.8434Z" fill="#1C1D1F"/>
<path d="M29.9111 9.57494C30.4619 8.73059 30.4619 7.64465 29.9111 6.80507L26.5455 1.66001L26.2651 1.22707C25.7618 0.459253 24.8955 0 23.9438 0H16.3465C15.3975 0 14.5311 0.459253 14.0252 1.22946L0.420682 22.0274C0.14774 22.4435 0 22.9244 0 23.4124C0 23.9003 0.145236 24.3811 0.418179 24.7949L4.0666 30.3753C4.56991 31.1455 5.43633 31.6023 6.38535 31.6023H13.9826C14.9367 31.6023 15.8032 31.143 16.3039 30.3729L16.582 29.9519C16.582 29.9519 16.582 29.9519 16.582 29.9471L16.5869 29.9375L19.2988 25.7947L27.3368 13.5073L29.906 9.57733L29.9111 9.57494ZM29.1173 8.19C29.1173 8.45551 29.0397 8.72341 28.8818 8.96021L15.5553 29.3348C15.4351 29.519 15.2422 29.5405 15.1646 29.5405C15.0869 29.5405 14.8966 29.519 14.774 29.3348L11.406 24.1801C11.1005 23.7137 11.1005 23.1133 11.406 22.6422L18.0693 12.4573L24.7326 2.27235C24.8528 2.08577 25.0457 2.06424 25.1233 2.06424C25.2008 2.06424 25.3937 2.08577 25.5164 2.27474L28.8818 7.4198C29.0397 7.6566 29.1173 7.92451 29.1173 8.19Z" fill="#1C1D1F"/>
</svg>
